<?xml version="1.0" encoding="UTF-8" standalone="no"?>
<!-- Created with Inkscape (http://www.inkscape.org/) -->

<svg
   width="100mm"
   height="100mm"
   viewBox="0 0 100 100"
   version="1.1"
   id="svg5"
   xmlns="http://www.w3.org/2000/svg"
   xmlns:svg="http://www.w3.org/2000/svg">
  <defs
     id="defs2">
    <filter
       style="color-interpolation-filters:sRGB;"
       id="filter638"
       x="-0.00031906059"
       y="-0.00038803843"
       width="1.0006381"
       height="1.0007761">
      <feColorMatrix
         values="1 0 0 0 0 0 1 0 0 0 0 0 1 0 0 0 0 0 1000 -500 "
         id="feColorMatrix636" />
    </filter>
  </defs>
  <g
     id="layer1">
    <rect
       style="fill:#ffffff;fill-opacity:1;stroke:none;stroke-width:0.46775"
       id="rect1569"
       width="99.511642"
       height="99.705925"
       x="0.3584592"
       y="0.1992766"
       ry="15.356611"
       rx="0" />
    <g
       id="g927"
       transform="matrix(1.8210924,0,0,2.1817897,-5.6314971,-56.139899)">
      <path
         style="fill:#000000;stroke:#292929;stroke-width:0.0529167"
         id="path892"
         d="m 12.468958,35.19924 c 0.741899,1.740607 1.011423,3.646477 1.218197,5.513396 0.243727,2.200555 0.276426,3.423412 0.395589,5.650174 0.05729,2.172912 0.101649,2.84526 0.06335,4.931476 -0.0106,0.577678 -0.0087,1.157108 -0.06545,1.732092 -0.03761,0.38114 -0.144524,0.752224 -0.216786,1.128337 0,0 3.305804,-1.634604 3.305804,-1.634604 v 0 c 0.01729,-0.364707 0.05368,-0.729006 0.05185,-1.094118 -0.01089,-2.176275 -0.264425,-4.348549 -0.306387,-6.523633 -0.05223,-1.208807 -0.191279,-4.506542 -0.258014,-5.740476 -0.107027,-1.978944 -0.221799,-3.967229 -0.787041,-5.879547 0,0 -3.401116,1.916903 -3.401116,1.916903 z" />
      <path
         style="fill:#000000;stroke:#292929;stroke-width:0.0529167"
         id="path894"
         d="m 8.5280081,36.814508 c 0.09034,-0.08228 0.1755621,-0.170563 0.2710198,-0.246851 0.2154952,-0.17222 0.4363691,-0.33783 0.6609789,-0.49798 0.2994491,-0.213511 1.2117322,-0.834115 0.9107912,-0.622713 -0.5365732,0.376928 -1.9489759,0.5534 -1.6177171,1.119307 0.3391776,0.579435 1.2677241,-0.454356 1.9240101,-0.596048 0.757095,-0.16346 1.534654,-0.210905 2.301982,-0.316357 0.852988,0.01839 1.708854,-0.01723 2.558964,0.05516 2.791288,0.237667 5.882755,1.076285 8.426722,2.270622 0.385547,0.181007 0.751363,0.401365 1.127044,0.602049 0.06821,0.0521 1.12251,0.751557 1.117108,1.069708 -0.0059,0.347451 -1.431665,1.129948 -1.372305,1.077597 1.448355,-1.277292 2.945842,-1.507633 -0.991114,-0.213296 -2.790545,0.735301 -5.647089,1.154491 -8.50543,1.514882 -1.462866,0.184441 -2.915607,0.321929 -4.363201,0.601811 0,0 -2.9642811,2.262994 -2.9642811,2.262994 v 0 c 0.3316338,-0.09454 0.6588911,-0.20606 0.9949011,-0.283625 1.313991,-0.303324 2.353846,-0.422971 3.719937,-0.626248 2.841619,-0.422841 5.686294,-0.839316 8.49666,-1.443886 3.603325,-1.011928 2.509131,-0.527482 7.009517,-3.15731 0.52343,-0.305872 1.410694,-0.885251 1.240694,-1.693455 -0.07802,-0.370946 -1.184029,-0.998678 -1.348486,-1.10694 -0.411125,-0.189331 -0.814189,-0.397251 -1.233376,-0.567992 -1.181012,-0.481049 -2.472442,-0.887534 -3.697362,-1.2183 -1.660455,-0.448374 -3.273815,-0.82455 -4.988471,-1.012045 -0.840635,-0.09192 -1.688802,-0.09174 -2.533202,-0.137607 -0.754732,0.07257 -1.517081,0.08844 -2.264194,0.217694 -2.552795,0.44164 -3.9690296,1.538314 -6.4663489,2.927371 -0.3179963,0.176877 -1.4122243,0.981673 -1.7434954,1.243978 -0.1140333,0.09029 -0.2168003,0.193969 -0.3252004,0.290955 0,0 3.6538548,-1.513478 3.6538548,-1.513478 z" />
      <path
         style="fill:#000000;stroke:#292929;stroke-width:0.0529167"
         id="path900"
         d="m 28.436726,50.559147 c 0.915485,-3.124968 1.790163,-6.25982 2.778791,-9.362895 0.823722,-2.204085 1.501474,-4.543552 2.896077,-6.4735 0.21431,-0.218686 0.254156,-0.293396 0.510587,-0.438253 0.07529,-0.04253 0.312291,-0.147579 0.237842,-0.10359 -1.06109,0.626978 -2.130822,1.239229 -3.199328,1.853481 -0.02384,0.01371 0.03843,-0.06004 0.06452,-0.05138 0.05099,0.01693 0.07762,0.07433 0.11643,0.111491 1.440677,2.559679 2.584106,5.280966 3.725542,7.983743 0.663694,1.645574 0.886688,2.154312 1.470105,3.755832 0.290827,0.798338 0.566586,1.497608 0.695163,2.331119 0.03243,0.210254 0.01651,0.425162 0.02477,0.637742 0,0 3.380973,-1.777828 3.380973,-1.777828 v 0 c -0.04696,-0.214374 -0.077,-0.433163 -0.140869,-0.643118 -0.24029,-0.789898 -0.581295,-1.493245 -0.914932,-2.2514 -1.142815,-2.596941 -0.364077,-0.804162 -1.602907,-3.682699 -0.295952,-0.735467 -0.599104,-1.468077 -0.887862,-2.2064 -0.801013,-2.048094 -1.502273,-4.136136 -2.37622,-6.155121 -0.06888,-0.102573 -0.122434,-0.217302 -0.206632,-0.307726 -0.959596,-1.030534 -2.589369,1.121307 -3.81372,1.816851 -0.267727,0.152093 -0.445823,0.43755 -0.617596,0.679268 -1.133554,1.978123 -1.674995,4.232023 -2.426607,6.366571 -1.012598,3.227326 -1.927474,6.50377 -3.290968,9.605465 0,0 3.576834,-1.687658 3.576834,-1.687658 z" />
      <path
         style="fill:#000000;stroke:#292929;stroke-width:0.0529167"
         id="path906"
         d="m 26.087452,47.083805 c 2.594701,-1.233284 5.350858,-2.096723 8.094762,-2.930192 0.9916,-0.298413 1.993958,-0.557427 2.999131,-0.805074 0,0 2.996287,-2.296414 2.996287,-2.296414 v 0 c -1.066202,0.294423 -2.129663,0.598535 -3.185488,0.928672 -2.629818,0.822412 -5.261245,1.652963 -7.833513,2.643105 0,0 -3.071179,2.459903 -3.071179,2.459903 z" />
      <path
         style="fill:#000000;stroke:#292929;stroke-width:0.0529167"
         id="path912"
         d="m 41.747836,34.049874 c -0.166005,2.082827 -0.03237,4.173625 0.05419,6.256843 0.146646,2.795805 0.299117,5.59008 0.520274,8.381026 0.07042,0.875554 0.134295,1.75151 0.179274,2.628744 0,0 3.438028,-1.790184 3.438028,-1.790184 v 0 c -0.108051,-0.851048 -0.221888,-1.701342 -0.336831,-2.551485 -0.334692,-2.7548 -0.506431,-5.523945 -0.63197,-8.295693 -0.05019,-2.1208 -0.150575,-4.284705 0.336653,-6.367013 0,0 -3.55962,1.737762 -3.55962,1.737762 z" />
      <path
         style="fill:#000000;stroke:#292929;stroke-width:0.0529167"
         id="path914"
         d="m 36.638113,52.769587 c 0.132482,-0.01614 0.266719,-0.02156 0.397449,-0.04842 0.564396,-0.115993 1.582944,-0.408241 2.072669,-0.556601 1.457008,-0.441388 2.892558,-0.9501 4.330139,-1.449898 1.390248,-0.474295 2.771206,-0.995561 4.205171,-1.327386 0.671772,-0.15545 0.854319,-0.169497 1.521093,-0.268435 0.839602,-0.08651 0.435266,-0.04677 1.212929,-0.120042 0,0 3.082155,-2.290625 3.082155,-2.290625 v 0 c -0.806297,0.09861 -0.386188,0.05144 -1.260565,0.139401 -0.648742,0.08944 -0.927817,0.114843 -1.578737,0.260504 -1.491792,0.333833 -2.915303,0.905843 -4.356163,1.403826 -2.10515,0.747583 -4.215879,1.531594 -6.421583,1.929429 0,0 -3.204557,2.328249 -3.204557,2.328249 z" />
      <path
         style="fill:#000000;stroke:#292929;stroke-width:0.0529167"
         id="path918"
         d="M 7.3355771,59.797613 C 9.254877,58.760362 5.7822938,60.62047 6.0573313,60.654249 7.0519636,60.776413 7.9175593,59.902692 8.8735092,59.602065 10.429901,59.11261 12.004377,58.679 13.587887,58.286041 c 5.590447,-1.387309 7.192794,-1.562182 13.012638,-2.590644 8.026818,-1.238634 16.101796,-2.2014 24.210365,-2.69103 1.79466,-0.07826 0.961644,-0.0521 2.498775,-0.08666 0,0 2.976377,-2.18482 2.976377,-2.18482 v 0 c -1.667862,0.122433 -0.766516,0.05057 -2.703555,0.221588 -8.472659,0.916025 -16.896617,2.236214 -25.323395,3.493077 -5.818293,0.931397 -6.967546,1.041628 -12.527454,2.197793 -0.833221,0.173265 -5.522979,1.153734 -6.8653686,1.768819 -2.773671,1.270894 -3.3872024,1.706748 -5.1789731,2.894616 0,0 3.6482808,-1.511168 3.6482808,-1.511168 z" />
    </g>
  </g>
</svg>
